<?xml version="1.0" encoding="utf-8"?>
<!-- Generator: Adobe Illustrator 15.1.0, SVG Export Plug-In . SVG Version: 6.00 Build 0)  -->
<!DOCTYPE svg PUBLIC "-//W3C//DTD SVG 1.1//EN" "http://www.w3.org/Graphics/SVG/1.1/DTD/svg11.dtd">
<svg version="1.1" id="Layer_1" xmlns="http://www.w3.org/2000/svg" xmlns:xlink="http://www.w3.org/1999/xlink" x="0px" y="0px"
	 width="112px" height="40px" viewBox="0 0 112 40" enable-background="new 0 0 112 40" xml:space="preserve">
<path fill="none" stroke="#FFFFFF" stroke-width="3" stroke-miterlimit="10" d="M93.092,34.234
	c7.335,0.037,13.489-5.685,13.903-13.09c0.431-7.649-5.422-14.198-13.069-14.627"/>
<path fill="none" stroke="#EAEAEA" stroke-width="3" stroke-miterlimit="10" d="M91.607,34.248
	c-7.325-0.376-13.148-6.434-13.148-13.852c0-7.66,6.208-13.87,13.869-13.87"/>
<ellipse fill="#FFFFFF" cx="92.671" cy="20.436" rx="11.201" ry="10.922"/>
<path fill="none" stroke="#000000" stroke-miterlimit="10" d="M26.73,11.798"/>
<rect x="6" y="9" fill="none" stroke="#FFFFFF" stroke-width="2" stroke-miterlimit="10" width="14" height="6"/>
<line fill="none" stroke="#FFFFFF" stroke-width="2" stroke-miterlimit="10" x1="17" y1="20" x2="9" y2="20"/>
<line fill="none" stroke="#FFFFFF" stroke-width="2" stroke-miterlimit="10" x1="17" y1="24" x2="9" y2="24"/>
<polygon fill="none" stroke="#FFFFFF" stroke-width="2" stroke-miterlimit="10" points="7.877,34.812 12,6 14.649,6 17.901,37 
	17.403,37 12.982,28.108 8.343,35.302 "/>
<polyline fill="none" stroke="#FFFFFF" stroke-width="2" stroke-miterlimit="10" points="12.096,28.476 12.982,29.384 
	13.821,28.476 "/>
<radialGradient id="SVGID_1_" cx="-101.0298" cy="538.2168" r="9.9304" gradientTransform="matrix(5.3169 0 0 0.1391 591.3859 -39.3021)" gradientUnits="userSpaceOnUse">
	<stop  offset="0" style="stop-color:#320045"/>
	<stop  offset="1" style="stop-color:#231F20;stop-opacity:0"/>
</radialGradient>
<ellipse opacity="0.5" fill="url(#SVGID_1_)" cx="54.219" cy="35.563" rx="52.798" ry="1.383"/>
<line fill="none" stroke="#06B1F4" stroke-width="4" stroke-miterlimit="10" x1="99.458" y1="12.089" x2="99.458" y2="12.089"/>
<line fill="none" stroke="#06B1F4" stroke-width="4" stroke-miterlimit="10" x1="88.461" y1="13.475" x2="88.461" y2="13.475"/>
<line fill="none" stroke="#06B1F4" stroke-width="4" stroke-miterlimit="10" x1="86.814" y1="14.86" x2="86.814" y2="14.86"/>
<line fill="none" stroke="#06B1F4" stroke-width="4" stroke-miterlimit="10" x1="81.171" y1="17.686" x2="81.171" y2="17.686"/>
<line fill="none" stroke="#06B1F4" stroke-width="4" stroke-miterlimit="10" x1="80.84" y1="17.631" x2="80.84" y2="17.631"/>
<line fill="none" stroke="#06B1F4" stroke-width="4" stroke-miterlimit="10" x1="83.871" y1="17.631" x2="83.871" y2="17.631"/>
<line fill="none" stroke="#06B1F4" stroke-width="4" stroke-miterlimit="10" x1="86.642" y1="17.631" x2="86.642" y2="17.631"/>
<line fill="none" stroke="#06B1F4" stroke-width="4" stroke-miterlimit="10" x1="88.028" y1="17.631" x2="88.028" y2="17.631"/>
<line fill="none" stroke="#06B1F4" stroke-width="4" stroke-miterlimit="10" x1="72.01" y1="14.767" x2="72.01" y2="14.767"/>
<line fill="none" stroke="#06B1F4" stroke-width="4" stroke-miterlimit="10" x1="82.484" y1="17.631" x2="82.484" y2="17.631"/>
<path fill="none" stroke="#06B1F4" stroke-width="4" stroke-miterlimit="10" d="M81.358,19.017"/>
<line fill="none" stroke="#06B1F4" stroke-width="4" stroke-miterlimit="10" x1="99.112" y1="19.017" x2="99.112" y2="19.017"/>
<line fill="none" stroke="#06B1F4" stroke-width="4" stroke-miterlimit="10" x1="81.271" y1="20.403" x2="81.271" y2="20.403"/>
<line fill="none" stroke="#06B1F4" stroke-width="4" stroke-miterlimit="10" x1="82.744" y1="20.403" x2="82.744" y2="20.403"/>
<line fill="none" stroke="#06B1F4" stroke-width="4" stroke-miterlimit="10" x1="82.052" y1="23.174" x2="82.052" y2="23.174"/>
<line fill="none" stroke="#06B1F4" stroke-width="4" stroke-miterlimit="10" x1="82.571" y1="24.559" x2="82.571" y2="24.559"/>
<line fill="none" stroke="#06B1F4" stroke-width="4" stroke-miterlimit="10" x1="83.092" y1="25.944" x2="83.092" y2="25.944"/>
<line fill="none" stroke="#06B1F4" stroke-width="4" stroke-miterlimit="10" x1="83.697" y1="27.33" x2="83.697" y2="27.33"/>
<line fill="none" stroke="#06B1F4" stroke-width="4" stroke-miterlimit="10" x1="84.997" y1="27.33" x2="84.997" y2="27.33"/>
<line fill="none" stroke="#06B1F4" stroke-width="4" stroke-miterlimit="10" x1="84.217" y1="28.629" x2="84.217" y2="28.629"/>
<path fill="none" stroke="#000000" stroke-miterlimit="10" d="M85.568,15.691"/>
<radialGradient id="SVGID_2_" cx="93.2363" cy="208.7012" r="1.8364" gradientTransform="matrix(0.4062 0 0 0.4062 62.5253 -76.3237)" gradientUnits="userSpaceOnUse">
	<stop  offset="0.37" style="stop-color:#FFFFFF"/>
	<stop  offset="1" style="stop-color:#FFFFFF;stop-opacity:0"/>
</radialGradient>
<circle fill="url(#SVGID_2_)" cx="100.398" cy="8.45" r="0.746"/>
<g>
	<linearGradient id="SVGID_3_" gradientUnits="userSpaceOnUse" x1="41.582" y1="35.7773" x2="41.582" y2="6.3359">
		<stop  offset="0.2121" style="stop-color:#FFFFFF"/>
		<stop  offset="0.3455" style="stop-color:#F9F9F9"/>
		<stop  offset="0.503" style="stop-color:#CCCCCC"/>
		<stop  offset="0.6" style="stop-color:#CCCCCC"/>
		<stop  offset="0.7455" style="stop-color:#FFFFFF"/>
	</linearGradient>
	<path fill="url(#SVGID_3_)" d="M39.587,22.293c1.305-0.098,2.459-0.295,3.462-0.588c1.004-0.293,1.848-0.722,2.534-1.285
		c0.685-0.562,1.203-1.276,1.554-2.142c0.351-0.864,0.525-1.916,0.525-3.157c0-1.077-0.178-2.04-0.538-2.887
		c-0.358-0.849-0.856-1.563-1.493-2.142c-0.636-0.579-1.398-1.02-2.288-1.321c-0.89-0.302-1.864-0.453-2.925-0.453
		c-0.734,0-1.289,0.045-1.664,0.134c-0.375,0.09-0.563,0.404-0.563,0.942v25.404c0,0.392-0.196,0.62-0.587,0.686
		c-0.278,0.049-0.584,0.093-0.918,0.136c-0.335,0.039-0.661,0.072-0.979,0.098c-0.319,0.023-0.612,0.039-0.882,0.05
		c-0.269,0.006-0.469,0.01-0.599,0.01c-0.392,0-0.587-0.204-0.587-0.611V10.668c0-0.833-0.18-1.383-0.539-1.652
		c-0.359-0.269-0.824-0.404-1.395-0.404c-0.327,0-0.685,0.024-1.077,0.073l-0.146-1.346c1.435-0.245,2.993-0.473,4.675-0.686
		c1.679-0.212,3.572-0.318,5.677-0.318c0.963,0,1.925,0.046,2.889,0.135c0.962,0.09,1.879,0.249,2.753,0.477
		c0.873,0.229,1.688,0.531,2.447,0.906c0.759,0.376,1.416,0.857,1.97,1.444c0.555,0.588,0.991,1.285,1.31,2.093
		c0.317,0.808,0.477,1.749,0.477,2.826c0,1.697-0.359,3.133-1.077,4.308c-0.718,1.174-1.672,2.133-2.864,2.876
		c-1.191,0.742-2.562,1.291-4.112,1.651c-1.55,0.358-3.157,0.57-4.821,0.636L39.587,22.293z"/>
</g>
<g>
	<linearGradient id="SVGID_4_" gradientUnits="userSpaceOnUse" x1="64.209" y1="35.624" x2="64.209" y2="5.8877">
		<stop  offset="0" style="stop-color:#FFFFFF"/>
		<stop  offset="0.6364" style="stop-color:#CCCCCC"/>
		<stop  offset="0.6667" style="stop-color:#E6E6E6"/>
		<stop  offset="0.9888" style="stop-color:#FFFFFF"/>
	</linearGradient>
	<path fill="url(#SVGID_4_)" d="M70.902,13.205c-0.163-0.897-0.428-1.668-0.796-2.312c-0.365-0.645-0.818-1.178-1.357-1.603
		c-0.539-0.424-1.146-0.738-1.822-0.941c-0.68-0.204-1.407-0.307-2.19-0.307c-0.768,0-1.504,0.094-2.203,0.282
		c-0.703,0.188-1.322,0.486-1.861,0.894c-0.539,0.407-0.965,0.93-1.285,1.566c-0.316,0.636-0.477,1.395-0.477,2.276
		c0,0.783,0.188,1.456,0.563,2.019c0.376,0.563,0.878,1.051,1.505,1.469c0.628,0.416,1.351,0.787,2.167,1.113
		c0.814,0.327,1.663,0.652,2.545,0.979c0.979,0.376,1.959,0.779,2.937,1.212c0.979,0.433,1.856,0.959,2.632,1.579
		c0.773,0.62,1.401,1.371,1.884,2.252c0.481,0.88,0.724,1.966,0.724,3.256c0,1.124-0.16,2.12-0.479,2.984
		c-0.318,0.865-0.759,1.62-1.321,2.264c-0.563,0.646-1.219,1.187-1.969,1.628c-0.751,0.439-1.56,0.796-2.424,1.064
		c-0.865,0.269-1.766,0.461-2.704,0.574c-0.938,0.116-1.864,0.173-2.778,0.173c-1.092,0-2.184-0.066-3.267-0.197
		c-1.085-0.131-2.166-0.316-3.243-0.563c-0.147-0.031-0.266-0.1-0.355-0.207c-0.09-0.106-0.143-0.217-0.16-0.331
		c-0.033-0.342-0.065-0.845-0.097-1.505c-0.033-0.66-0.061-1.334-0.086-2.018c-0.025-0.688-0.045-1.307-0.061-1.86
		c-0.017-0.557-0.024-0.883-0.024-0.981l1.224-0.12c0.113,0.978,0.371,1.826,0.771,2.543c0.4,0.72,0.905,1.312,1.518,1.776
		c0.61,0.465,1.313,0.807,2.104,1.026c0.791,0.221,1.643,0.33,2.558,0.33c0.815,0,1.606-0.093,2.373-0.28
		c0.769-0.188,1.448-0.49,2.044-0.905c0.594-0.417,1.072-0.952,1.432-1.603c0.358-0.653,0.539-1.446,0.539-2.374
		c0-0.768-0.188-1.419-0.563-1.959c-0.376-0.538-0.879-1.016-1.507-1.432c-0.627-0.415-1.345-0.786-2.152-1.113
		c-0.808-0.326-1.645-0.661-2.509-1.004c-0.979-0.392-1.959-0.812-2.937-1.26c-0.979-0.449-1.857-0.992-2.632-1.627
		c-0.775-0.637-1.403-1.407-1.885-2.314c-0.481-0.905-0.722-2.019-0.722-3.34c0-1.599,0.314-2.937,0.943-4.013
		s1.451-1.942,2.473-2.594c1.019-0.653,2.178-1.118,3.476-1.396c1.296-0.277,2.622-0.416,3.977-0.416
		c0.897,0,1.876,0.07,2.937,0.208s2.057,0.322,2.986,0.55c0.146,0.034,0.265,0.103,0.354,0.209c0.089,0.107,0.144,0.217,0.158,0.33
		c0.032,0.343,0.065,0.82,0.099,1.432c0.032,0.611,0.064,1.232,0.097,1.859c0.034,0.628,0.058,1.196,0.075,1.701
		c0.014,0.506,0.024,0.808,0.024,0.905L70.902,13.205z"/>
</g>
<g>
	<linearGradient id="SVGID_5_" gradientUnits="userSpaceOnUse" x1="24.9487" y1="35.8281" x2="24.9487" y2="6.9067">
		<stop  offset="0" style="stop-color:#FFFFFF"/>
		<stop  offset="0.6364" style="stop-color:#CCCCCC"/>
		<stop  offset="0.6667" style="stop-color:#E6E6E6"/>
		<stop  offset="0.9888" style="stop-color:#FFFFFF"/>
	</linearGradient>
	<path fill="url(#SVGID_5_)" d="M23.045,7.387h-1.154c-0.063,0-0.115-0.022-0.154-0.067c-0.038-0.044-0.057-0.099-0.057-0.163
		c0-0.077,0.019-0.138,0.057-0.183c0.039-0.044,0.09-0.067,0.154-0.067h6.25c0.063,0,0.119,0.023,0.164,0.067
		c0.045,0.045,0.067,0.1,0.067,0.164c0,0.077-0.022,0.138-0.067,0.183c-0.045,0.045-0.1,0.067-0.164,0.067h-1.154v27.96h1.154
		c0.128,0.085,0.192,0.166,0.192,0.24c0,0.086-0.064,0.166-0.192,0.24h-6.404c-0.141-0.087-0.211-0.167-0.211-0.24
		c0-0.074,0.07-0.155,0.211-0.24h1.308V7.387z"/>
</g>
<linearGradient id="SVGID_6_" gradientUnits="userSpaceOnUse" x1="-118.1284" y1="362.0371" x2="-117.5708" y2="362.0371" gradientTransform="matrix(-0.5147 1.1459 2.4093 1.2497 -826.2637 -294.977)">
	<stop  offset="0.0242" style="stop-color:#FFFFFF"/>
	<stop  offset="1" style="stop-color:#FFFFFF;stop-opacity:0"/>
</linearGradient>
<path fill="url(#SVGID_6_)" d="M107.188,22.707c0.091-0.17-0.075-0.438-0.372-0.599c-0.298-0.157-0.613-0.151-0.703,0.019
	s0.077,0.438,0.372,0.598C106.781,22.883,107.096,22.876,107.188,22.707z"/>
<line fill="none" stroke="#06B1F4" stroke-width="4" stroke-miterlimit="10" x1="92.183" y1="9.676" x2="92.183" y2="9.676"/>
<line fill="none" stroke="#06B1F4" stroke-width="4" stroke-miterlimit="10" x1="90.539" y1="11.061" x2="90.539" y2="11.061"/>
<line fill="none" stroke="#06B1F4" stroke-width="4" stroke-miterlimit="10" x1="95.475" y1="12.448" x2="95.475" y2="12.448"/>
<line fill="none" stroke="#06B1F4" stroke-width="4" stroke-miterlimit="10" x1="92.183" y1="16.603" x2="92.183" y2="16.603"/>
<line fill="none" stroke="#06B1F4" stroke-width="4" stroke-miterlimit="10" x1="94.955" y1="17.99" x2="94.955" y2="17.99"/>
<line fill="none" stroke="#06B1F4" stroke-width="4" stroke-miterlimit="10" x1="92.356" y1="20.761" x2="92.356" y2="20.761"/>
<line fill="none" stroke="#06B1F4" stroke-width="4" stroke-miterlimit="10" x1="91.231" y1="22.146" x2="91.231" y2="22.146"/>
<line fill="none" stroke="#06B1F4" stroke-width="4" stroke-miterlimit="10" x1="93.137" y1="24.918" x2="93.137" y2="24.918"/>
<line fill="none" stroke="#06B1F4" stroke-width="4" stroke-miterlimit="10" x1="92.271" y1="26.302" x2="92.271" y2="26.302"/>
<line fill="none" stroke="#06B1F4" stroke-width="4" stroke-miterlimit="10" x1="97.64" y1="27.688" x2="97.64" y2="27.688"/>
<path fill="none" stroke="#06B1F4" stroke-width="4" stroke-miterlimit="10" d="M95.475,22.437"/>
<radialGradient id="SVGID_7_" cx="77.9463" cy="11.7852" r="2.3636" gradientTransform="matrix(0.9363 0.0017 -0.0018 1 20.1658 -0.2555)" gradientUnits="userSpaceOnUse">
	<stop  offset="0.37" style="stop-color:#FFFFFF"/>
	<stop  offset="1" style="stop-color:#FFFFFF;stop-opacity:0"/>
</radialGradient>
<polygon opacity="0.7" fill="url(#SVGID_7_)" points="96.25,11.846 90,11.835 90,11.477 96.16,11.488 "/>
<circle fill="#006091" cx="88.972" cy="14.976" r="0.95"/>
<linearGradient id="SVGID_8_" gradientUnits="userSpaceOnUse" x1="-117.2515" y1="354.9883" x2="-116.625" y2="354.9883" gradientTransform="matrix(-0.5147 1.1459 2.4093 1.2497 -826.2637 -294.977)">
	<stop  offset="0.0242" style="stop-color:#FFFFFF"/>
	<stop  offset="1" style="stop-color:#FFFFFF;stop-opacity:0"/>
</linearGradient>
<path fill="url(#SVGID_8_)" d="M89.803,14.977c0.103-0.191-0.085-0.491-0.418-0.671c-0.335-0.179-0.688-0.17-0.792,0.02
	c-0.102,0.191,0.087,0.492,0.419,0.671C89.346,15.177,89.701,15.167,89.803,14.977z"/>
<circle fill="#2CC3EC" cx="96.027" cy="16.552" r="1.055"/>
<linearGradient id="SVGID_9_" gradientUnits="userSpaceOnUse" x1="-19.7524" y1="258.0215" x2="-19.0571" y2="258.0215" gradientTransform="matrix(0.2138 1.2378 -2.6442 0.6119 782.2795 -117.7229)">
	<stop  offset="0.0242" style="stop-color:#FFFFFF"/>
	<stop  offset="1" style="stop-color:#FFFFFF;stop-opacity:0"/>
</linearGradient>
<path fill="url(#SVGID_9_)" d="M95.131,16.324c-0.058-0.234,0.227-0.505,0.635-0.607c0.41-0.1,0.789,0.007,0.845,0.24
	c0.06,0.234-0.225,0.506-0.634,0.606C95.567,16.666,95.189,16.558,95.131,16.324z"/>
<circle fill="#2CC3EC" cx="88.937" cy="23.105" r="0.895"/>
<linearGradient id="SVGID_10_" gradientUnits="userSpaceOnUse" x1="-15.8296" y1="261.0059" x2="-15.2397" y2="261.0059" gradientTransform="matrix(0.2138 1.2378 -2.6442 0.6119 782.2795 -117.7229)">
	<stop  offset="0.0242" style="stop-color:#FFFFFF"/>
	<stop  offset="1" style="stop-color:#FFFFFF;stop-opacity:0"/>
</linearGradient>
<path fill="url(#SVGID_10_)" d="M88.178,22.912c-0.049-0.198,0.193-0.429,0.539-0.514c0.348-0.086,0.668,0.006,0.717,0.204
	c0.05,0.198-0.192,0.428-0.538,0.514C88.549,23.202,88.227,23.11,88.178,22.912z"/>
<circle fill="#006091" cx="89.462" cy="17.425" r="1.055"/>
<linearGradient id="SVGID_11_" gradientUnits="userSpaceOnUse" x1="-115.7671" y1="355.5273" x2="-115.0718" y2="355.5273" gradientTransform="matrix(-0.5147 1.1459 2.4093 1.2497 -826.2637 -294.977)">
	<stop  offset="0.0242" style="stop-color:#FFFFFF"/>
	<stop  offset="1" style="stop-color:#FFFFFF;stop-opacity:0"/>
</linearGradient>
<path fill="url(#SVGID_11_)" d="M90.386,17.426c0.114-0.212-0.093-0.544-0.466-0.745c-0.37-0.199-0.763-0.189-0.876,0.023
	c-0.114,0.212,0.093,0.546,0.463,0.745C89.879,17.649,90.273,17.639,90.386,17.426z"/>
<circle fill="#006091" cx="96.1" cy="23.047" r="1.075"/>
<linearGradient id="SVGID_12_" gradientUnits="userSpaceOnUse" x1="-114.2373" y1="358.6133" x2="-113.5288" y2="358.6133" gradientTransform="matrix(-0.5147 1.1459 2.4093 1.2497 -826.2637 -294.977)">
	<stop  offset="0.0242" style="stop-color:#FFFFFF"/>
	<stop  offset="1" style="stop-color:#FFFFFF;stop-opacity:0"/>
</linearGradient>
<path fill="url(#SVGID_12_)" d="M97.04,23.049c0.115-0.215-0.096-0.556-0.474-0.759c-0.377-0.203-0.778-0.192-0.893,0.023
	c-0.117,0.216,0.094,0.554,0.473,0.76C96.522,23.274,96.925,23.265,97.04,23.049z"/>
<circle fill="#006091" cx="97.699" cy="26.69" r="0.716"/>
<linearGradient id="SVGID_13_" gradientUnits="userSpaceOnUse" x1="-112.0103" y1="359.6914" x2="-111.5396" y2="359.6914" gradientTransform="matrix(-0.5147 1.1459 2.4093 1.2497 -826.2637 -294.977)">
	<stop  offset="0.0242" style="stop-color:#FFFFFF"/>
	<stop  offset="1" style="stop-color:#FFFFFF;stop-opacity:0"/>
</linearGradient>
<path fill="url(#SVGID_13_)" d="M98.325,26.691c0.077-0.144-0.062-0.371-0.314-0.506c-0.252-0.137-0.519-0.129-0.595,0.016
	c-0.077,0.144,0.063,0.37,0.315,0.505C97.982,26.841,98.249,26.834,98.325,26.691z"/>
<circle fill="#006091" cx="97.404" cy="24.67" r="0.895"/>
<linearGradient id="SVGID_14_" gradientUnits="userSpaceOnUse" x1="-113.4497" y1="359.291" x2="-112.8608" y2="359.291" gradientTransform="matrix(-0.5147 1.1459 2.4093 1.2497 -826.2637 -294.977)">
	<stop  offset="0.0242" style="stop-color:#FFFFFF"/>
	<stop  offset="1" style="stop-color:#FFFFFF;stop-opacity:0"/>
</linearGradient>
<path fill="url(#SVGID_14_)" d="M98.188,24.67c0.097-0.179-0.082-0.462-0.395-0.631c-0.315-0.171-0.648-0.16-0.744,0.019
	c-0.097,0.18,0.079,0.464,0.395,0.632C97.756,24.858,98.091,24.851,98.188,24.67z"/>
<circle fill="#006091" cx="89.264" cy="12.68" r="0.843"/>
<circle fill="#006091" cx="90.637" cy="11.038" r="0.716"/>
<linearGradient id="SVGID_15_" gradientUnits="userSpaceOnUse" x1="-120.3125" y1="354.8818" x2="-119.959" y2="354.8818" gradientTransform="matrix(-0.5147 1.1459 2.4093 1.2497 -826.2637 -294.977)">
	<stop  offset="0.0242" style="stop-color:#FFFFFF"/>
	<stop  offset="1" style="stop-color:#FFFFFF;stop-opacity:0"/>
</linearGradient>
<path fill="url(#SVGID_15_)" d="M90.928,11.038c0.06-0.107-0.047-0.277-0.236-0.379c-0.188-0.102-0.389-0.096-0.446,0.011
	c-0.058,0.108,0.049,0.278,0.237,0.379C90.671,11.152,90.87,11.146,90.928,11.038z"/>
<circle fill="#006091" cx="94.518" cy="21.212" r="1.254"/>
<linearGradient id="SVGID_16_" gradientUnits="userSpaceOnUse" x1="-115.0728" y1="357.8076" x2="-114.2466" y2="357.8076" gradientTransform="matrix(-0.5147 1.1459 2.4093 1.2497 -826.2637 -294.977)">
	<stop  offset="0.0242" style="stop-color:#FFFFFF"/>
	<stop  offset="1" style="stop-color:#FFFFFF;stop-opacity:0"/>
</linearGradient>
<path fill="url(#SVGID_16_)" d="M95.615,21.215c0.136-0.251-0.112-0.648-0.552-0.885c-0.442-0.237-0.907-0.226-1.042,0.027
	c-0.138,0.252,0.111,0.647,0.551,0.885C95.013,21.479,95.479,21.467,95.615,21.215z"/>
<g>
	<circle fill="#006091" cx="97.162" cy="28.48" r="0.537"/>
</g>
<linearGradient id="SVGID_17_" gradientUnits="userSpaceOnUse" x1="-110.4282" y1="359.7764" x2="-110.0747" y2="359.7764" gradientTransform="matrix(-0.5147 1.1459 2.4093 1.2497 -826.2637 -294.977)">
	<stop  offset="0.0242" style="stop-color:#FFFFFF"/>
	<stop  offset="1" style="stop-color:#FFFFFF;stop-opacity:0"/>
</linearGradient>
<path fill="url(#SVGID_17_)" d="M97.633,28.481c0.058-0.107-0.048-0.278-0.235-0.379c-0.19-0.103-0.39-0.098-0.447,0.011
	c-0.059,0.107,0.047,0.277,0.235,0.379C97.375,28.595,97.575,28.588,97.633,28.481z"/>
<g>
	<circle fill="#006091" cx="96.447" cy="29.554" r="0.537"/>
	
		<ellipse transform="matrix(0.8807 0.4737 -0.4737 0.8807 25.4379 -42.2455)" fill="#006091" cx="96.576" cy="29.371" rx="0.388" ry="0.22"/>
</g>
<g>
	<path fill="#006091" d="M95.452,30.021c-0.14-0.142-0.365-0.146-0.506-0.009c-0.143,0.136-0.146,0.364-0.011,0.507
		c0.138,0.142,0.365,0.146,0.509,0.009C95.585,30.391,95.588,30.163,95.452,30.021z"/>
	
		<linearGradient id="SVGID_18_" gradientUnits="userSpaceOnUse" x1="-108.3213" y1="359.3789" x2="-108.0854" y2="359.3789" gradientTransform="matrix(-0.5147 1.1459 2.4093 1.2497 -826.2637 -294.977)">
		<stop  offset="0.0242" style="stop-color:#FFFFFF"/>
		<stop  offset="1" style="stop-color:#FFFFFF;stop-opacity:0"/>
	</linearGradient>
	<path fill="url(#SVGID_18_)" d="M95.506,30.271c0.039-0.07-0.03-0.186-0.157-0.254c-0.125-0.067-0.258-0.063-0.298,0.011
		c-0.037,0.069,0.032,0.184,0.159,0.251C95.334,30.345,95.471,30.342,95.506,30.271z"/>
</g>
<radialGradient id="SVGID_19_" cx="155.8828" cy="14" r="2.238" gradientTransform="matrix(1.3992 0 0 1 -125.0405 0)" gradientUnits="userSpaceOnUse">
	<stop  offset="0.37" style="stop-color:#FFFFFF"/>
	<stop  offset="1" style="stop-color:#FFFFFF;stop-opacity:0"/>
</radialGradient>
<rect x="88.642" y="14" opacity="0.7" fill="url(#SVGID_19_)" width="8.857" height="0"/>
<radialGradient id="SVGID_20_" cx="56.8252" cy="17" r="2.2926" gradientTransform="matrix(0.863 0 0 1 43.3315 0)" gradientUnits="userSpaceOnUse">
	<stop  offset="0.37" style="stop-color:#FFFFFF"/>
	<stop  offset="1" style="stop-color:#FFFFFF;stop-opacity:0"/>
</radialGradient>
<rect x="89.574" y="17" opacity="0.7" fill="url(#SVGID_20_)" width="5.596" height="0"/>
<radialGradient id="SVGID_21_" cx="80.375" cy="24" r="2.1973" gradientTransform="matrix(0.9602 0 0 1 14.6363 0)" gradientUnits="userSpaceOnUse">
	<stop  offset="0.37" style="stop-color:#FFFFFF"/>
	<stop  offset="1" style="stop-color:#FFFFFF;stop-opacity:0"/>
</radialGradient>
<rect x="88.828" y="24" opacity="0.7" fill="url(#SVGID_21_)" width="5.968" height="0"/>
<radialGradient id="SVGID_22_" cx="117.5664" cy="26.5" r="2.1894" gradientTransform="matrix(1.1452 0 0 1 -42.1368 0)" gradientUnits="userSpaceOnUse">
	<stop  offset="0.37" style="stop-color:#FFFFFF"/>
	<stop  offset="1" style="stop-color:#FFFFFF;stop-opacity:0"/>
</radialGradient>
<rect x="89" y="26" opacity="0.7" fill="url(#SVGID_22_)" width="7" height="1"/>
<circle fill="#2CC3EC" cx="89.595" cy="28.347" r="0.715"/>
<linearGradient id="SVGID_23_" gradientUnits="userSpaceOnUse" x1="-11.5205" y1="261.0908" x2="-11.0493" y2="261.0908" gradientTransform="matrix(0.2138 1.2378 -2.6442 0.6119 782.2795 -117.7229)">
	<stop  offset="0.0242" style="stop-color:#FFFFFF"/>
	<stop  offset="1" style="stop-color:#FFFFFF;stop-opacity:0"/>
</linearGradient>
<path fill="url(#SVGID_23_)" d="M88.988,28.193c-0.039-0.158,0.154-0.344,0.431-0.41c0.277-0.069,0.534,0.003,0.573,0.162
	c0.039,0.157-0.153,0.342-0.432,0.411C89.284,28.424,89.026,28.353,88.988,28.193z"/>
<circle fill="#2CC3EC" cx="91.004" cy="29.494" r="0.537"/>
<linearGradient id="SVGID_24_" gradientUnits="userSpaceOnUse" x1="-10.2598" y1="260.6455" x2="-9.9072" y2="260.6455" gradientTransform="matrix(0.2138 1.2378 -2.6442 0.6119 782.2795 -117.7229)">
	<stop  offset="0.0242" style="stop-color:#FFFFFF"/>
	<stop  offset="1" style="stop-color:#FFFFFF;stop-opacity:0"/>
</linearGradient>
<path fill="url(#SVGID_24_)" d="M90.549,29.378c-0.029-0.119,0.115-0.257,0.321-0.308c0.209-0.053,0.402,0.003,0.431,0.12
	c0.03,0.121-0.114,0.257-0.322,0.309C90.771,29.552,90.578,29.497,90.549,29.378z"/>
<circle fill="#2CC3EC" cx="89.048" cy="26.984" r="0.537"/>
<linearGradient id="SVGID_25_" gradientUnits="userSpaceOnUse" x1="-12.5605" y1="261.1992" x2="-12.2061" y2="261.1992" gradientTransform="matrix(0.2138 1.2378 -2.6442 0.6119 782.2795 -117.7229)">
	<stop  offset="0.0242" style="stop-color:#FFFFFF"/>
	<stop  offset="1" style="stop-color:#FFFFFF;stop-opacity:0"/>
</linearGradient>
<path fill="url(#SVGID_25_)" d="M88.593,26.87c-0.029-0.122,0.114-0.259,0.322-0.31c0.209-0.053,0.401,0.002,0.431,0.121
	c0.029,0.12-0.114,0.257-0.323,0.311C88.814,27.042,88.621,26.986,88.593,26.87z"/>
<circle fill="#2CC3EC" cx="88.569" cy="25.238" r="0.715"/>
<linearGradient id="SVGID_26_" gradientUnits="userSpaceOnUse" x1="-14.1211" y1="261.2695" x2="-13.6504" y2="261.2695" gradientTransform="matrix(0.2138 1.2378 -2.6442 0.6119 782.2795 -117.7229)">
	<stop  offset="0.0242" style="stop-color:#FFFFFF"/>
	<stop  offset="1" style="stop-color:#FFFFFF;stop-opacity:0"/>
</linearGradient>
<path fill="url(#SVGID_26_)" d="M87.961,25.084c-0.039-0.16,0.154-0.344,0.432-0.411c0.277-0.069,0.533,0.004,0.572,0.162
	c0.041,0.158-0.153,0.343-0.431,0.411C88.258,25.314,88,25.243,87.961,25.084z"/>
<path fill="#2CC3EC" d="M89.395,19.922c0.504-0.311,1.166-0.154,1.477,0.352c0.312,0.504,0.154,1.166-0.35,1.476
	c-0.504,0.313-1.167,0.154-1.478-0.35C88.732,20.893,88.89,20.232,89.395,19.922z"/>
<linearGradient id="SVGID_27_" gradientUnits="userSpaceOnUse" x1="-17.5264" y1="260.498" x2="-16.8193" y2="260.498" gradientTransform="matrix(0.2138 1.2378 -2.6442 0.6119 782.2795 -117.7229)">
	<stop  offset="0.0242" style="stop-color:#FFFFFF"/>
	<stop  offset="1" style="stop-color:#FFFFFF;stop-opacity:0"/>
</linearGradient>
<path fill="url(#SVGID_27_)" d="M89.046,20.604c-0.058-0.237,0.231-0.514,0.647-0.616c0.417-0.104,0.803,0.005,0.86,0.243
	c0.06,0.239-0.23,0.515-0.647,0.618C89.493,20.952,89.105,20.842,89.046,20.604z"/>
<circle fill="#006091" cx="91.941" cy="19.385" r="1.267"/>
<linearGradient id="SVGID_28_" gradientUnits="userSpaceOnUse" x1="-18.4243" y1="259.6914" x2="-17.5903" y2="259.6914" gradientTransform="matrix(0.2138 1.2378 -2.6442 0.6119 782.2795 -117.7229)">
	<stop  offset="0.0242" style="stop-color:#FFFFFF"/>
	<stop  offset="1" style="stop-color:#FFFFFF;stop-opacity:0"/>
</linearGradient>
<path fill="url(#SVGID_28_)" d="M90.867,19.112c-0.07-0.28,0.272-0.605,0.761-0.727c0.492-0.122,0.946,0.007,1.015,0.288
	c0.069,0.281-0.271,0.606-0.762,0.727C91.391,19.521,90.936,19.393,90.867,19.112z"/>
<circle fill="#2CC3EC" cx="94.346" cy="18.305" r="1.16"/>
<linearGradient id="SVGID_29_" gradientUnits="userSpaceOnUse" x1="-18.7622" y1="258.7461" x2="-17.9971" y2="258.7461" gradientTransform="matrix(0.2138 1.2378 -2.6442 0.6119 782.2795 -117.7229)">
	<stop  offset="0.0242" style="stop-color:#FFFFFF"/>
	<stop  offset="1" style="stop-color:#FFFFFF;stop-opacity:0"/>
</linearGradient>
<path fill="url(#SVGID_29_)" d="M93.36,18.055c-0.063-0.257,0.25-0.556,0.699-0.667c0.45-0.11,0.868,0.007,0.929,0.265
	c0.063,0.258-0.248,0.556-0.698,0.667C93.84,18.431,93.425,18.312,93.36,18.055z"/>
<circle fill="#2CC3EC" cx="97.35" cy="14.799" r="0.95"/>
<linearGradient id="SVGID_30_" gradientUnits="userSpaceOnUse" x1="-20.8066" y1="257.4277" x2="-20.1816" y2="257.4277" gradientTransform="matrix(0.2138 1.2378 -2.6442 0.6119 782.2795 -117.7229)">
	<stop  offset="0.0242" style="stop-color:#FFFFFF"/>
	<stop  offset="1" style="stop-color:#FFFFFF;stop-opacity:0"/>
</linearGradient>
<path fill="url(#SVGID_30_)" d="M96.543,14.593c-0.05-0.209,0.205-0.455,0.574-0.545c0.366-0.091,0.706,0.006,0.759,0.216
	c0.053,0.209-0.203,0.455-0.571,0.545C96.937,14.901,96.597,14.804,96.543,14.593z"/>
<circle fill="#2CC3EC" cx="97.382" cy="12.542" r="0.844"/>
<linearGradient id="SVGID_31_" gradientUnits="userSpaceOnUse" x1="-22.4844" y1="257.2705" x2="-21.9277" y2="257.2705" gradientTransform="matrix(0.2138 1.2378 -2.6442 0.6119 782.2795 -117.7229)">
	<stop  offset="0.0242" style="stop-color:#FFFFFF"/>
	<stop  offset="1" style="stop-color:#FFFFFF;stop-opacity:0"/>
</linearGradient>
<path fill="url(#SVGID_31_)" d="M96.665,12.361c-0.044-0.188,0.182-0.405,0.509-0.486c0.326-0.08,0.63,0.006,0.677,0.192
	c0.047,0.187-0.183,0.404-0.509,0.485C97.016,12.633,96.711,12.547,96.665,12.361z"/>
<g>
	<circle fill="#2CC3EC" cx="95.899" cy="10.752" r="0.537"/>
	
		<linearGradient id="SVGID_32_" gradientUnits="userSpaceOnUse" x1="-23.9395" y1="257.6875" x2="-23.585" y2="257.6875" gradientTransform="matrix(0.2138 1.2378 -2.6442 0.6119 782.2795 -117.7229)">
		<stop  offset="0.0242" style="stop-color:#FFFFFF"/>
		<stop  offset="1" style="stop-color:#FFFFFF;stop-opacity:0"/>
	</linearGradient>
	<path fill="url(#SVGID_32_)" d="M95.444,10.637c-0.03-0.119,0.114-0.257,0.321-0.309c0.209-0.051,0.401,0.004,0.432,0.123
		c0.028,0.119-0.115,0.257-0.324,0.309C95.666,10.81,95.473,10.756,95.444,10.637z"/>
</g>
<g>
	<circle fill="#2CC3EC" cx="94.288" cy="10.036" r="0.358"/>
	
		<linearGradient id="SVGID_33_" gradientUnits="userSpaceOnUse" x1="-24.667" y1="258.2246" x2="-24.4316" y2="258.2246" gradientTransform="matrix(0.2138 1.2378 -2.6442 0.6119 782.2795 -117.7229)">
		<stop  offset="0.0242" style="stop-color:#FFFFFF"/>
		<stop  offset="1" style="stop-color:#FFFFFF;stop-opacity:0"/>
	</linearGradient>
	<path fill="url(#SVGID_33_)" d="M93.983,9.959c-0.02-0.08,0.077-0.171,0.217-0.206c0.137-0.034,0.266,0.002,0.287,0.082
		c0.02,0.08-0.078,0.171-0.217,0.205C94.133,10.075,94.003,10.039,93.983,9.959z"/>
</g>
<radialGradient id="SVGID_34_" cx="106.3125" cy="27" r="2.1994" gradientTransform="matrix(1.0791 0 0 1 -21.0458 0)" gradientUnits="userSpaceOnUse">
	<stop  offset="0.37" style="stop-color:#FFFFFF"/>
	<stop  offset="1" style="stop-color:#FFFFFF;stop-opacity:0"/>
</radialGradient>
<rect x="90.319" y="27" opacity="0.7" fill="url(#SVGID_34_)" width="6.714" height="0"/>
<linearGradient id="SVGID_35_" gradientUnits="userSpaceOnUse" x1="-118.9141" y1="354.7363" x2="-118.3569" y2="354.7363" gradientTransform="matrix(-0.5147 1.1459 2.4093 1.2497 -826.2637 -294.977)">
	<stop  offset="0.0242" style="stop-color:#FFFFFF"/>
	<stop  offset="1" style="stop-color:#FFFFFF;stop-opacity:0"/>
</linearGradient>
<path fill="url(#SVGID_35_)" d="M90.002,12.682c0.091-0.17-0.075-0.437-0.371-0.597c-0.299-0.159-0.611-0.152-0.701,0.018
	c-0.094,0.17,0.072,0.437,0.369,0.597C89.596,12.859,89.911,12.851,90.002,12.682z"/>
<radialGradient id="SVGID_36_" cx="-118.1616" cy="17" r="2.6106" gradientTransform="matrix(0.5051 0 0 1 151.8675 0)" gradientUnits="userSpaceOnUse">
	<stop  offset="0.37" style="stop-color:#FFFFFF"/>
	<stop  offset="1" style="stop-color:#FFFFFF;stop-opacity:0"/>
</radialGradient>
<rect x="90.319" y="17" opacity="0.7" fill="url(#SVGID_36_)" width="3.729" height="0"/>
<text transform="matrix(1 0 0 1 89.9551 26.6504)" fill="#9CECFF" font-family="'OpenSans'" font-size="0.716">10011000011001</text>
<text transform="matrix(1 0 0 1 90.0645 25.2705)" fill="#9CECFF" font-family="'OpenSans'" font-size="0.716">10011000011001</text>
<text transform="matrix(1 0 0 1 90.1563 22.8135)" fill="#9CECFF" font-family="'OpenSans'" font-size="0.716">100110000</text>
<text transform="matrix(1 0 0 1 91.3623 28.8379)" fill="#9CECFF" font-family="'OpenSans'" font-size="0.716">10011000011</text>
<text transform="matrix(1 0 0 1 90.5029 13.0537)" fill="#9CECFF" font-family="'OpenSans'" font-size="0.716">10011000011001</text>
<text transform="matrix(1 0 0 1 90.3682 14.8604)" fill="#9CECFF" font-family="'OpenSans'" font-size="0.716">10011000011001</text>
<text transform="matrix(1 0 0 1 90.8564 16.6025)" fill="#9CECFF" font-family="'OpenSans'" font-size="0.716">100110000</text>
<linearGradient id="SVGID_37_" gradientUnits="userSpaceOnUse" x1="-109.4043" y1="359.6973" x2="-109.0532" y2="359.6973" gradientTransform="matrix(-0.5147 1.1459 2.4093 1.2497 -826.2637 -294.977)">
	<stop  offset="0.0242" style="stop-color:#FFFFFF"/>
	<stop  offset="1" style="stop-color:#FFFFFF;stop-opacity:0"/>
</linearGradient>
<path fill="url(#SVGID_37_)" d="M96.917,29.555c0.058-0.107-0.049-0.277-0.237-0.378c-0.188-0.103-0.388-0.097-0.445,0.011
	c-0.06,0.108,0.046,0.278,0.235,0.377C96.659,29.667,96.86,29.663,96.917,29.555z"/>
</svg>
